<svg width="110.000000" height="20.000000" viewBox="0 0 110 20" fill="none" xmlns="http://www.w3.org/2000/svg" xmlns:xlink="http://www.w3.org/1999/xlink">
	<desc>
			Created with Pixso.
	</desc>
	<defs/>
	<path id="Star 1" d="M9.66 0L7.49 6.9L0.47 6.9L6.15 11.18L3.98 18.09L9.66 13.82L15.34 18.09L13.17 11.18L18.86 6.9L11.83 6.9L9.66 0Z" fill="#505050" fill-opacity="1.000000" fill-rule="nonzero"/>
	<path id="Star 2" d="M32.33 0L30.16 6.9L23.13 6.9L28.82 11.18L26.65 18.09L32.33 13.82L38.01 18.09L35.84 11.18L41.52 6.9L34.5 6.9L32.33 0Z" fill="#505050" fill-opacity="1.000000" fill-rule="nonzero"/>
	<path id="Star 3" d="M55 0L52.82 6.9L45.8 6.9L51.48 11.18L49.31 18.09L55 13.82L60.68 18.09L58.51 11.18L64.19 6.9L57.17 6.9L55 0Z" fill="#505050" fill-opacity="1.000000" fill-rule="nonzero"/>
	<path id="Star 4" d="M77.66 0L75.49 6.9L68.47 6.9L74.15 11.18L71.98 18.09L77.66 13.82L83.34 18.09L81.17 11.18L86.86 6.9L79.83 6.9L77.66 0Z" fill="#505050" fill-opacity="1.000000" fill-rule="nonzero"/>
	<path id="Star 5" d="M100.33 0L98.16 6.9L91.13 6.9L96.82 11.18L94.65 18.09L100.33 13.82L106.01 18.09L103.84 11.18L109.52 6.9L102.5 6.9L100.33 0Z" fill="#505050" fill-opacity="1.000000" fill-rule="nonzero"/>
</svg>
