<svg width="20.625000" height="20.625000" viewBox="0 0 20.625 20.625" fill="none" xmlns="http://www.w3.org/2000/svg" xmlns:xlink="http://www.w3.org/1999/xlink">
	<desc>
			Created with Pixso.
	</desc>
	<defs/>
	<path id="Vector 431 (Stroke)" d="M5.62 0L19.68 0C19.93 0 20.17 0.09 20.35 0.27C20.52 0.45 20.62 0.68 20.62 0.93L20.62 15C20.62 15.51 20.2 15.93 19.68 15.93C19.16 15.93 18.75 15.51 18.75 15L18.75 3.2L1.6 20.35C1.23 20.71 0.64 20.71 0.27 20.35C-0.1 19.98 -0.1 19.39 0.27 19.02L17.42 1.87L5.62 1.87C5.1 1.87 4.68 1.45 4.68 0.93C4.68 0.41 5.1 0 5.62 0Z" fill="#FFFFFF" fill-opacity="1.000000" fill-rule="evenodd"/>
</svg>
