<svg width="30.000000" height="30.000000" viewBox="0 0 30 30" fill="none" xmlns="http://www.w3.org/2000/svg" xmlns:xlink="http://www.w3.org/1999/xlink">
	<desc>
			Created with Pixso.
	</desc>
	<defs/>
	<path id="Vector" d="M28.34 15C28.91 15 29.47 14.92 30 14.77C29.58 14.68 29.14 14.64 28.69 14.64L21.27 14.64C20.05 14.64 18.9 14.29 17.94 13.68C18.15 12.44 18.73 11.26 19.69 10.3L24.43 5.56C24.83 5.16 25.17 4.71 25.45 4.23C25.09 4.47 24.74 4.74 24.43 5.06L19.18 10.3C18.32 11.17 17.26 11.73 16.15 11.98C15.42 10.96 15 9.71 15 8.36L15 1.65C15 1.08 14.92 0.52 14.77 0C14.68 0.42 14.64 0.85 14.64 1.3L14.64 8.72C14.64 9.94 14.29 11.09 13.68 12.05C12.44 11.84 11.26 11.26 10.3 10.3L5.56 5.56C5.16 5.16 4.71 4.82 4.23 4.55C4.47 4.9 4.74 5.25 5.06 5.56L10.3 10.81C11.17 11.67 11.73 12.73 11.98 13.84C10.96 14.57 9.71 15 8.36 15L1.65 15C1.08 15 0.52 15.07 0 15.22C0.41 15.31 0.85 15.35 1.3 15.35L8.72 15.35C9.94 15.35 11.09 15.7 12.05 16.31C11.84 17.55 11.26 18.73 10.3 19.69L5.56 24.43C5.16 24.83 4.82 25.28 4.54 25.76C4.9 25.52 5.25 25.25 5.56 24.93L10.81 19.69C11.67 18.82 12.73 18.26 13.84 18.01C14.57 19.03 15 20.28 15 21.63L15 28.34C15 28.91 15.07 29.47 15.22 30C15.31 29.57 15.35 29.14 15.35 28.69L15.35 21.27C15.35 20.05 15.7 18.9 16.31 17.94C17.55 18.15 18.73 18.73 19.69 19.69L24.43 24.43C24.83 24.83 25.28 25.17 25.76 25.45C25.52 25.09 25.25 24.74 24.93 24.43L19.69 19.18C18.82 18.32 18.26 17.26 18.01 16.15C19.03 15.42 20.28 15 21.63 15L28.34 15Z" fill="#474752" fill-opacity="1.000000" fill-rule="evenodd"/>
</svg>
