<svg width="140.000000" height="24.000000" viewBox="0 0 140 24" fill="none" xmlns="http://www.w3.org/2000/svg" xmlns:xlink="http://www.w3.org/1999/xlink">
	<desc>
			Created with Pixso.
	</desc>
	<defs/>
	<path id="Shape" d="M10.27 2.94L8.54 5.88C8.26 6.36 7.79 6.7 7.25 6.82L3.91 7.56C2.42 7.88 1.83 9.7 2.85 10.84L5.11 13.39C5.48 13.81 5.66 14.36 5.61 14.91L5.28 18.31C5.13 19.83 6.67 20.95 8.07 20.34L11.19 18.97C11.7 18.75 12.29 18.75 12.8 18.97L15.92 20.34C17.32 20.95 18.86 19.83 18.71 18.31L18.38 14.91C18.33 14.36 18.51 13.81 18.88 13.39L21.14 10.84C22.16 9.7 21.57 7.88 20.08 7.56L16.74 6.82C16.2 6.7 15.73 6.36 15.45 5.88L13.72 2.94C12.95 1.62 11.04 1.62 10.27 2.94Z" fill="#FFCE22" fill-opacity="1.000000" fill-rule="evenodd"/>
	<path id="Shape" d="M39.27 2.94L37.54 5.88C37.26 6.36 36.79 6.7 36.25 6.82L32.91 7.56C31.42 7.88 30.83 9.7 31.85 10.84L34.11 13.39C34.48 13.81 34.66 14.36 34.61 14.91L34.28 18.31C34.13 19.83 35.67 20.95 37.07 20.34L40.19 18.97C40.7 18.75 41.29 18.75 41.8 18.97L44.92 20.34C46.32 20.95 47.86 19.83 47.71 18.31L47.38 14.91C47.33 14.36 47.51 13.81 47.88 13.39L50.14 10.84C51.16 9.7 50.57 7.88 49.08 7.56L45.74 6.82C45.2 6.7 44.73 6.36 44.45 5.88L42.72 2.94C41.95 1.62 40.04 1.62 39.27 2.94Z" fill="#FFCE22" fill-opacity="1.000000" fill-rule="evenodd"/>
	<path id="Shape" d="M68.27 2.94L66.54 5.88C66.26 6.36 65.79 6.7 65.25 6.82L61.91 7.56C60.42 7.88 59.83 9.7 60.85 10.84L63.11 13.39C63.48 13.81 63.66 14.36 63.61 14.91L63.28 18.31C63.13 19.83 64.67 20.95 66.07 20.34L69.19 18.97C69.7 18.75 70.29 18.75 70.8 18.97L73.92 20.34C75.32 20.95 76.86 19.83 76.71 18.31L76.38 14.91C76.33 14.36 76.51 13.81 76.88 13.39L79.14 10.84C80.16 9.7 79.57 7.88 78.08 7.56L74.74 6.82C74.2 6.7 73.73 6.36 73.45 5.88L71.72 2.94C70.95 1.62 69.04 1.62 68.27 2.94Z" fill="#FFCE22" fill-opacity="1.000000" fill-rule="evenodd"/>
	<path id="Shape" d="M97.27 2.94L95.54 5.88C95.26 6.36 94.79 6.7 94.25 6.82L90.91 7.56C89.42 7.88 88.83 9.7 89.85 10.84L92.11 13.39C92.48 13.81 92.66 14.36 92.61 14.91L92.28 18.31C92.13 19.83 93.67 20.95 95.07 20.34L98.19 18.97C98.7 18.75 99.29 18.75 99.8 18.97L102.92 20.34C104.32 20.95 105.86 19.83 105.71 18.31L105.38 14.91C105.33 14.36 105.51 13.81 105.88 13.39L108.14 10.84C109.16 9.7 108.57 7.88 107.08 7.56L103.74 6.82C103.2 6.7 102.73 6.36 102.45 5.88L100.72 2.94C99.95 1.62 98.04 1.62 97.27 2.94Z" fill="#FFCE22" fill-opacity="1.000000" fill-rule="evenodd"/>
	<path id="Shape" d="M126.27 2.94L124.54 5.88C124.26 6.36 123.79 6.7 123.25 6.82L119.91 7.56C118.42 7.88 117.83 9.7 118.85 10.84L121.11 13.39C121.49 13.81 121.66 14.36 121.61 14.91L121.28 18.31C121.13 19.83 122.67 20.95 124.07 20.34L127.19 18.97C127.7 18.75 128.29 18.75 128.8 18.97L131.92 20.34C133.32 20.95 134.86 19.83 134.71 18.31L134.38 14.91C134.33 14.36 134.5 13.81 134.88 13.39L137.14 10.84C138.16 9.7 137.57 7.88 136.08 7.56L132.74 6.82C132.2 6.7 131.73 6.36 131.45 5.88L129.72 2.94C128.95 1.62 127.04 1.62 126.27 2.94Z" fill="#FFCE22" fill-opacity="1.000000" fill-rule="evenodd"/>
</svg>
