
<svg version="1.0" xmlns="http://www.w3.org/2000/svg"
 width="512.000000pt" height="512.000000pt" viewBox="0 0 512.000000 512.000000"
 preserveAspectRatio="xMidYMid meet">

<g transform="translate(0.000000,512.000000) scale(0.100000,-0.100000)"
fill="#000000" stroke="none">
<path d="M1750 5109 c-522 -61 -978 -344 -1270 -789 -149 -228 -241 -491 -270
-775 -18 -168 -7 -1214 13 -1320 74 -394 238 -700 524 -976 112 -108 269 -222
394 -284 l68 -35 3 -342 c5 -380 9 -408 71 -490 99 -130 274 -125 412 10 28
27 167 187 309 355 l259 306 576 4 576 3 115 26 c344 79 611 222 859 462 270
262 436 577 508 961 12 63 16 199 20 645 5 594 0 700 -38 879 -135 623 -624
1140 -1238 1307 -210 58 -194 57 -1036 59 -429 2 -814 -1 -855 -6z m1711 -316
c520 -114 929 -479 1087 -973 67 -208 67 -213 67 -870 0 -540 -2 -604 -19
-695 -75 -399 -310 -748 -652 -967 -122 -78 -297 -150 -463 -190 -81 -20 -122
-22 -706 -27 -560 -5 -623 -8 -651 -23 -18 -10 -162 -171 -320 -358 l-289
-340 -5 367 c-5 337 -7 370 -24 395 -12 18 -58 47 -133 83 -140 67 -233 126
-341 217 -240 202 -412 492 -484 821 -22 100 -23 116 -23 707 0 546 2 614 18
695 84 410 302 733 648 959 180 117 384 188 634 220 17 2 374 3 795 1 734 -1
769 -2 861 -22z"/>
<path d="M2425 4502 c-97 -61 -93 -206 7 -258 19 -10 77 -19 152 -24 372 -27
672 -174 920 -450 201 -224 336 -562 336 -845 0 -83 20 -128 71 -163 47 -32
136 -28 175 9 51 48 57 72 51 204 -39 825 -730 1516 -1542 1542 -126 4 -143 2
-170 -15z"/>
<path d="M1454 3981 c-200 -57 -373 -264 -446 -531 -20 -73 -23 -109 -23 -255
0 -194 12 -268 75 -458 164 -491 582 -959 1075 -1202 453 -223 899 -230 1211
-17 77 52 187 169 220 233 75 149 65 338 -26 479 -48 75 -256 272 -320 303
-200 97 -418 58 -575 -103 -61 -63 -97 -83 -134 -75 -18 4 -112 91 -284 263
-305 306 -293 281 -187 399 129 142 166 234 158 394 -4 86 -9 106 -42 175 -32
68 -55 96 -164 205 -84 84 -145 136 -179 153 -114 57 -243 70 -359 37z m202
-296 c44 -18 177 -144 215 -204 22 -33 29 -57 29 -92 0 -70 -14 -96 -91 -175
-46 -48 -80 -95 -102 -140 -29 -63 -32 -78 -32 -164 0 -87 3 -101 33 -165 30
-63 59 -96 310 -346 297 -296 323 -316 445 -340 70 -14 160 -2 231 32 26 12
86 57 132 100 99 92 137 107 217 88 43 -10 64 -25 139 -97 128 -123 152 -173
128 -263 -23 -89 -167 -195 -320 -236 -85 -23 -286 -22 -388 1 -482 108 -955
496 -1183 971 -156 324 -182 617 -75 838 38 79 118 170 169 192 42 19 99 19
143 0z"/>
<path d="M2445 3916 c-53 -24 -95 -85 -95 -138 0 -12 9 -40 20 -63 29 -59 74
-81 184 -89 186 -13 358 -96 489 -235 123 -132 186 -278 202 -472 7 -93 23
-128 71 -160 38 -25 119 -25 157 0 64 42 78 89 66 218 -13 139 -42 242 -104
368 -155 318 -441 523 -800 575 -94 13 -154 12 -190 -4z"/>
<path d="M2431 3314 c-38 -20 -68 -63 -77 -111 -15 -77 49 -157 133 -168 101
-12 147 -55 163 -149 5 -32 17 -69 25 -83 42 -63 142 -83 206 -40 66 44 83
118 54 232 -34 128 -128 239 -251 297 -85 40 -199 49 -253 22z"/>
</g>
</svg>
