
<svg version="1.0" xmlns="http://www.w3.org/2000/svg"
 width="512.000000pt" height="512.000000pt" viewBox="0 0 512.000000 512.000000"
 preserveAspectRatio="xMidYMid meet">

<g transform="translate(0.000000,512.000000) scale(0.100000,-0.100000)"
fill="#000000" stroke="none">
<path d="M2460 5114 c-19 -2 -78 -9 -130 -15 -361 -41 -737 -179 -1052 -386
-609 -400 -1009 -1039 -1103 -1762 -19 -143 -21 -439 -6 -576 32 -278 106
-546 217 -784 l44 -94 -212 -601 c-189 -538 -211 -608 -212 -667 -1 -56 3 -72
29 -115 40 -63 108 -106 178 -112 47 -3 109 16 668 212 l616 216 87 -41 c903
-423 1978 -261 2719 409 358 324 616 750 737 1218 177 683 52 1416 -338 1998
-398 593 -1000 972 -1717 1082 -95 14 -451 27 -525 18z m375 -304 c427 -39
821 -198 1162 -467 94 -74 272 -252 348 -348 639 -805 631 -1938 -20 -2740
-348 -429 -871 -716 -1430 -785 -115 -14 -382 -14 -504 0 -250 29 -466 92
-724 212 -88 41 -122 52 -162 52 -39 0 -171 -43 -599 -192 -302 -106 -550
-191 -553 -189 -2 3 83 251 189 553 149 428 192 560 192 599 0 40 -11 74 -52
162 -161 345 -223 618 -223 978 0 253 29 440 108 677 317 962 1261 1581 2268
1488z"/>
<path d="M1760 3959 c-47 -18 -81 -48 -231 -198 -97 -97 -185 -194 -197 -216
-73 -145 -73 -328 -1 -549 66 -199 206 -443 395 -686 114 -148 436 -470 584
-584 309 -239 605 -393 842 -436 85 -16 231 -14 296 4 90 25 142 64 318 240
153 153 174 177 194 231 28 76 24 168 -10 235 -31 62 -396 429 -462 465 -67
37 -155 44 -229 20 -42 -14 -72 -36 -145 -107 l-92 -89 -92 56 c-236 146 -439
349 -585 585 l-56 92 89 92 c71 73 93 103 107 145 24 74 17 162 -20 229 -36
66 -403 431 -465 462 -65 33 -168 37 -240 9z m430 -603 c0 -5 -40 -51 -90
-101 -101 -103 -123 -144 -122 -227 0 -49 7 -70 48 -145 195 -361 496 -662
857 -857 75 -41 96 -48 145 -48 83 -1 124 21 227 122 50 50 96 90 101 90 5 0
80 -71 167 -158 l157 -157 -142 -142 c-170 -169 -181 -174 -320 -150 -278 48
-660 289 -1003 632 -343 343 -584 725 -632 1003 -24 139 -19 150 150 320 l142
142 157 -157 c87 -87 158 -162 158 -167z"/>
</g>
</svg>
