<svg width="30.000000" height="30.000000" viewBox="0 0 30 30" fill="none" xmlns="http://www.w3.org/2000/svg" xmlns:xlink="http://www.w3.org/1999/xlink">
	<desc>
			Created with Pixso.
	</desc>
	<defs>
		<clipPath id="clip83_2144">
			<rect id="Icon" rx="-0.500000" width="29.000000" height="29.000000" transform="translate(0.500000 0.500000)" fill="white" fill-opacity="0"/>
		</clipPath>
	</defs>
	<g clip-path="url(#clip83_2144)">
		<path id="Vector 431 (Stroke)" d="M10.31 4.68L24.37 4.68C24.62 4.68 24.86 4.78 25.03 4.96C25.21 5.13 25.31 5.37 25.31 5.62L25.31 19.68C25.31 20.2 24.89 20.62 24.37 20.62C23.85 20.62 23.43 20.2 23.43 19.68L23.43 7.88L6.28 25.03C5.92 25.4 5.32 25.4 4.96 25.03C4.59 24.67 4.59 24.07 4.96 23.71L22.11 6.56L10.31 6.56C9.79 6.56 9.37 6.14 9.37 5.62C9.37 5.1 9.79 4.68 10.31 4.68Z" fill="#FFFFFF" fill-opacity="1.000000" fill-rule="evenodd"/>
	</g>
</svg>
