<svg width="134.659180" height="27.000000" viewBox="0 0 134.659 27" fill="none" xmlns="http://www.w3.org/2000/svg" xmlns:xlink="http://www.w3.org/1999/xlink">
	<desc>
			Created with Pixso.
	</desc>
	<defs/>
	<path id="Vector" d="M113.41 27L113.41 0L117.39 0L130.68 20.06L130.68 0L134.65 0L134.65 27L130.68 27L117.39 6.91L117.39 27L113.41 27Z" fill="#FFFFFF" fill-opacity="1.000000" fill-rule="evenodd"/>
	<path id="Vector" d="M91.66 27L91.66 0L108.91 0L108.91 3.69L95.58 3.69L95.58 11.26L106.66 11.26L106.66 14.96L95.58 14.96L95.58 23.3L108.91 23.3L108.91 27L91.66 27Z" fill="#FFFFFF" fill-opacity="1.000000" fill-rule="evenodd"/>
	<path id="Vector" d="M82.11 27L82.11 0L86.03 0L86.03 27L82.11 27Z" fill="#FFFFFF" fill-opacity="1.000000" fill-rule="evenodd"/>
	<path id="Vector" d="M49.84 27L49.84 0L53.38 0L63.17 20.3L72.9 0L76.48 0L76.48 26.98L72.77 26.98L72.77 8.51L64.05 27L62.27 27L53.53 8.51L53.53 27L49.84 27Z" fill="#FFFFFF" fill-opacity="1.000000" fill-rule="evenodd"/>
	<path id="Vector" d="M23.28 27L32.05 0L37.7 0L46.47 27L42.4 27L34.32 2.36L35.33 2.36L27.35 27L23.28 27ZM27.83 20.9L27.83 17.23L41.93 17.23L41.93 20.9L27.83 20.9Z" fill="#FFFFFF" fill-opacity="1.000000" fill-rule="evenodd"/>
	<path id="Vector" d="M0 27L0 0L8.45 0C8.7 0 9.16 0 9.84 0.01C10.53 0.03 11.18 0.08 11.81 0.16C13.92 0.43 15.7 1.18 17.13 2.43C18.58 3.68 19.68 5.27 20.41 7.2C21.15 9.11 21.52 11.21 21.52 13.5C21.52 15.8 21.15 17.91 20.41 19.83C19.68 21.75 18.58 23.33 17.13 24.58C15.7 25.81 13.92 26.56 11.81 26.83C11.18 26.91 10.53 26.96 9.84 26.98C9.16 26.99 8.7 27 8.45 27L0 27ZM4.01 23.26L8.45 23.26C8.88 23.26 9.38 23.25 9.97 23.23C10.56 23.2 11.08 23.15 11.53 23.08C12.9 22.81 14.01 22.22 14.86 21.3C15.73 20.36 16.36 19.21 16.76 17.85C17.16 16.48 17.36 15.03 17.36 13.5C17.36 11.91 17.15 10.44 16.74 9.09C16.33 7.73 15.69 6.59 14.83 5.68C13.98 4.75 12.88 4.16 11.53 3.91C11.08 3.83 10.55 3.78 9.95 3.76C9.36 3.74 8.86 3.73 8.45 3.73L4.01 3.73L4.01 23.26Z" fill="#FFFFFF" fill-opacity="1.000000" fill-rule="evenodd"/>
</svg>
